<?xml version="1.0" standalone="no"?><svg xmlns="http://www.w3.org/2000/svg" viewBox="0 0 1440 320"><path fill="#fff" fill-opacity="1" d="M0,128L17.1,149.3C34.3,171,69,213,103,197.3C137.1,181,171,107,206,101.3C240,96,274,160,309,208C342.9,256,377,288,411,277.3C445.7,267,480,213,514,208C548.6,203,583,245,617,234.7C651.4,224,686,160,720,149.3C754.3,139,789,181,823,213.3C857.1,245,891,267,926,234.7C960,203,994,117,1029,122.7C1062.9,128,1097,224,1131,229.3C1165.7,235,1200,149,1234,138.7C1268.6,128,1303,192,1337,229.3C1371.4,267,1406,277,1423,282.7L1440,288L1440,320L1422.9,320C1405.7,320,1371,320,1337,320C1302.9,320,1269,320,1234,320C1200,320,1166,320,1131,320C1097.1,320,1063,320,1029,320C994.3,320,960,320,926,320C891.4,320,857,320,823,320C788.6,320,754,320,720,320C685.7,320,651,320,617,320C582.9,320,549,320,514,320C480,320,446,320,411,320C377.1,320,343,320,309,320C274.3,320,240,320,206,320C171.4,320,137,320,103,320C68.6,320,34,320,17,320L0,320Z"></path></svg>